<?xml version="1.0" encoding="UTF-8"?>
<svg width="650px" height="369px" viewBox="0 0 650 369" version="1.1" xmlns="http://www.w3.org/2000/svg" xmlns:xlink="http://www.w3.org/1999/xlink">
    <!-- Generator: Sketch 64 (93537) - https://sketch.com -->
    <title>kitchen</title>
    <desc>Created with Sketch.</desc>
    <g id="kitchen" stroke="none" stroke-width="1" fill="none" fill-rule="evenodd">
        <path d="M99.806934,55.6374511 C109.011742,66.3618622 104.927575,92.8715988 102.711039,104.069965 C94.8730499,143.669008 68.702373,187.639377 53.5500714,226.542596" id="Path" stroke="#FFFFFF"></path>
        <path d="M126.832597,154.391603 C108.62609,159.780548 74.8439273,151.754283 72.2130764,170.558438 C68.8537561,194.569369 102.112792,208.741045 116.498255,228.256893 C122.452418,236.334528 127.635516,244.953071 133.204146,253.301159" id="Path-2" stroke="#FFFFFF"></path>
        <path d="M184.866141,187.259472 C175.999546,214.804834 161.495293,239.500108 151.464073,266.636734" id="Path-3" stroke="#FFFFFF"></path>
        <path d="M192.820865,134.89816 C189.764593,136.251467 185.695663,136.313108 183.65205,138.95808 C182.375357,140.610457 184.11408,143.172731 184.948699,145.086811 C186.892001,149.543495 188.232785,154.725256 191.912725,157.902754 C193.733451,159.474888 196.761942,157.855011 199.104999,157.310278 C202.742345,156.464637 206.385728,155.420518 209.730722,153.760276 C214.833562,151.227552 227.706302,149.368861 224.2901,144.809998 L224.853439,142.823746 C224.090535,141.805664 222.719117,141.309487 221.47341,141.051173 C211.540891,138.991534 201.478142,137.619343 191.480508,135.903428" id="Path-4" stroke="#FFFFFF"></path>
        <path d="M266.195661,139.390297 C262.757356,153.829884 260.116894,168.483073 255.880745,182.709059 C248.145523,208.685753 238.332132,234.005956 230.311991,259.896101 C223.852233,280.749111 240.481346,277.660982 260.620556,276.291184 C267.032091,275.855095 273.028556,272.887536 279.341837,271.687352 C282.803826,271.029212 286.360901,271.049549 289.870433,270.730648" id="Path-5" stroke="#FFFFFF"></path>
        <path d="M216.782162,206.446964 C242.888354,207.907111 268.994545,209.367257 295.100737,210.827404" id="Path-6" stroke="#FFFFFF"></path>
        <path d="M364.342768,225.717015 C350.924636,229.472602 336.799016,231.274993 324.088371,236.983778 C311.716567,242.540378 305.62126,261.577235 314.254235,272.056435 C316.457756,274.731195 320.09382,276.64752 323.559027,276.694263 C336.605146,276.870242 349.517909,274.036213 362.49735,272.707188" id="Path-7" stroke="#FFFFFF"></path>
        <path d="M404.461187,157.863903 C406.478304,209.326785 410.976673,233.853121 401.280269,282.551037 C400.205418,287.949226 399.633462,271.603244 399.828217,266.102534 C399.922936,263.427241 400.917782,260.794287 402.134989,258.410054 C403.85727,255.036494 405.584986,251.390433 408.545389,249.02756 C410.976558,247.087099 414.337998,246.460372 417.437391,246.1963 C430.03227,245.123199 443.183529,241.58058 455.341308,245.040485 C459.806991,246.311345 459.021957,253.663444 459.775168,258.244938 C460.724567,264.019766 460.189578,269.942299 460.396782,275.790979" id="Path-8" stroke="#FFFFFF"></path>
        <path d="M477.554315,263.183859 C489.222538,260.812335 502.514,262.46224 512.558983,256.069287 C516.388079,253.632326 513.187544,245.5858 509.62574,242.772563 C505.368227,239.409832 498.428338,238.821067 493.449193,240.975709 C490.950755,242.056866 473.854531,264.48529 481.050897,269.939061 C495.482222,280.875852 516.358469,289.434216 533.480197,283.328055" id="Path-9" stroke="#FFFFFF"></path>
        <path d="M548.384377,241.092262 C549.211577,249.94865 550.506164,258.773772 550.865979,267.661426 C551.016162,271.371039 551.746332,275.531918 549.909275,278.758217 C548.580329,281.092156 548.466944,273.347313 549.112831,270.740361 C550.31119,265.903507 552.67554,261.372243 555.2707,257.118261 C557.803235,252.966934 560.988521,249.208878 564.376382,245.720376 C577.947133,231.746487 615.732638,242.404306 605.305814,274.426341" id="Path-10" stroke="#FFFFFF"></path>
    </g>
</svg>